<svg
  id="ep"
  xmlns="http://www.w3.org/2000/svg"
  x="0"
  y="0"
  width="20"
  height="20"
  viewBox="0 0 20 20"
  overflow="visible"
>
  <g>
    <path
      id="svg"
      class="svg-cr"
      d="M10,3.333A6.667,6.667,0,1,0,16.667,10,6.667,6.667,0,0,0,10,3.333M10,0A10,10,0,1,1,0,10,10,10,0,0,1,10,0Z"
      fill="#0d0d0d"
    />
    <path
      id="svg"
      class="svg-pl"
      d="M8.333,0h3.333V8.333H20v3.333H11.667V20H8.333V11.667H0V8.333H8.333Z"
      fill="#0d0d0d"
    />
    <path
      id="svg"
      class="svg-x"
      d="M14.668.526l2.357,2.357-5.893,5.89,5.893,5.89-2.357,2.357L8.775,11.133l-5.89,5.89L.525,14.666l5.893-5.89L.525,2.883,2.885.526l5.89,5.893Z"
      transform="translate(1.225 1.226)"
      fill="#0d0d0d"
    />
  </g>
</svg>
